<svg xmlns="http://www.w3.org/2000/svg" xmlns:xlink="http://www.w3.org/1999/xlink" viewBox="0 0 500 500"><defs><clipPath id="freepik--clip-path--inject-93"><polygon points="132.46 88.19 119.52 99.49 131.32 137.02 158.53 136.52 164.58 90.48 145.25 85.23 132.46 88.19" style="fill:none"></polygon></clipPath><clipPath id="freepik--clip-path-2--inject-93"><path d="M119.52,99.49,109.4,125.38s7.86,4.59,8,4.09,8.13-11,8.13-11Z" style="fill:none"></path></clipPath><clipPath id="freepik--clip-path-3--inject-93"><polygon points="164.58 90.48 189.44 110.39 179.76 116.1 162.62 106.21 164.58 90.48" style="fill:none"></polygon></clipPath><clipPath id="freepik--clip-path-4--inject-93"><path d="M424.06,357l-6.48,11.18a36.36,36.36,0,0,1,5.53,10c1.53,4.42,8,29.28,11.9,40.68a14.2,14.2,0,0,0,2,4,4.69,4.69,0,0,1,1,2.72,2.21,2.21,0,0,1-2,2.39h0c-2.34.34-15.41,1.49-16.08.94-.43-.36,6.11-3.1,8.85-4.9A7.6,7.6,0,0,0,431,421.9s-18.69-40.35-20.67-45.25a29.42,29.42,0,0,1-2.15-12.37,95.24,95.24,0,0,1,1-10.8Z" style="fill:none"></path></clipPath><clipPath id="freepik--clip-path-5--inject-93"><path d="M401.86,313.73s-3.32,8.41-8,21.43-.35,32.71-.35,32.71,3.43,2.14,12.71-.44,17.08-5.25,17.08-5.25,6-14.52,6.35-23.78-5.85-20.61-5.85-20.61S411.19,302.22,401.86,313.73Z" style="fill:none"></path></clipPath><clipPath id="freepik--clip-path-6--inject-93"><path d="M411.27,276.77a61,61,0,0,0-9.23-1c-3.93,0-11.19.4-14.91-1.37s-8.69-6.38-8.69-6.38l-8.38-25-3.71.26s3.55,21,3.55,24.72a13,13,0,0,0,3.14,8.44c1.77,2.36,14.09,9.32,18.6,11.67l2,1s-3.53,5.3-2.94,7.65,5.29,5.3,6.28,7.06,4.42,11.38,4.42,11.38q4.18-7.56,7.59-15.49C413.62,289.15,417.35,281.3,411.27,276.77Z" style="fill:none"></path></clipPath></defs><g id="freepik--background-simple--inject-93"><path d="M77.72,333.84c57,50.17,107.91,50.67,179.92,54.78s122.32-12,155.76-51.33C452,291.9,438.22,201.43,366.81,178.05c-22.32-7.32-47.69-7.07-68-18.84-38.68-22.47-72.66-60.92-130-61.4s-90.32,42.38-90.32,42.38C39,197,20.7,283.67,77.72,333.84Z" style="fill:#00ADEF"></path><path d="M77.72,333.84c57,50.17,107.91,50.67,179.92,54.78s122.32-12,155.76-51.33C452,291.9,438.22,201.43,366.81,178.05c-22.32-7.32-47.69-7.07-68-18.84-38.68-22.47-72.66-60.92-130-61.4s-90.32,42.38-90.32,42.38C39,197,20.7,283.67,77.72,333.84Z" style="fill:#fff;opacity:0.7000000000000001;isolation:isolate"></path></g><g id="freepik--Shadow--inject-93"><g id="freepik--shadow--inject-93"><ellipse cx="234.59" cy="420.38" rx="156.32" ry="7.84" style="fill:#00ADEF"></ellipse><ellipse cx="234.59" cy="420.38" rx="156.32" ry="7.84" style="fill:#fff;opacity:0.699999988079071;isolation:isolate"></ellipse><ellipse cx="418.57" cy="431.44" rx="30.43" ry="6.91" style="fill:#00ADEF"></ellipse><ellipse cx="418.57" cy="431.44" rx="30.43" ry="6.91" style="fill:#fff;opacity:0.699999988079071;isolation:isolate"></ellipse></g></g><g id="freepik--character-2--inject-93"><g id="freepik--character-2--inject-93"><polygon points="132.46 88.19 119.52 99.49 131.32 137.02 158.53 136.52 164.58 90.48 145.25 85.23 132.46 88.19" style="fill:#fff"></polygon><g style="clip-path:url(#freepik--clip-path--inject-93)"><path d="M155,91.47c-2.3-.51-5.88-1.79-5.88-1.79s-14.58-.25-16.9,9.21l-.76,3.84,3.84-1-4.87,7.43c-.52.78-1-6.4-2.05-5.63S125.1,114,125.1,114l1.48,7.94,4.74,15.1,27.2-.5,5.35-40.66C162.43,95,157,91.91,155,91.47Z" style="fill:#00ADEF;opacity:0.5;isolation:isolate"></path></g><polygon points="132.46 88.19 119.52 99.49 131.32 137.02 158.53 136.52 164.58 90.48 145.25 85.23 132.46 88.19" style="fill:none;stroke:#263238;stroke-linecap:round;stroke-linejoin:round;stroke-width:0.8297007805211063px"></polygon><polygon points="134.93 96.05 139.34 101.3 138.21 132.76 142.46 138.49 146.89 129.97 140.66 101.3 144.27 95.23 142.8 90.16 134.93 96.05" style="fill:#263238;stroke:#263238;stroke-linecap:round;stroke-linejoin:round;stroke-width:0.8297007805211063px"></polygon><path d="M131.32,87a24.59,24.59,0,0,0-1.1,6.71,30,30,0,0,0,1.47,7.74s3.32-4.27,5.53-5.08,6.72-1.31,8.2-.66,5.08,3,5.08,3a26.68,26.68,0,0,0-1.64-10.17c-2-4.91-2.79-6.72-4.11-7.2S133.61,80.15,131.32,87Z" style="fill:#fff;stroke:#263238;stroke-linecap:round;stroke-linejoin:round;stroke-width:0.8297007805211063px"></path><path d="M119.52,99.49,109.4,125.38s7.86,4.59,8,4.09,8.13-11,8.13-11Z" style="fill:#fff"></path><g style="clip-path:url(#freepik--clip-path-2--inject-93)"><path d="M121.77,113.48s-6.56-2.54-4.86-1a64.9,64.9,0,0,1,4.86,5.36l-6.14,3.08,4.31,5c2.38-3.21,5.59-7.42,5.59-7.42l-4.28-13.57-.25.1Z" style="fill:#00ADEF;opacity:0.5;isolation:isolate"></path></g><path d="M119.52,99.49,109.4,125.38s7.86,4.59,8,4.09,8.13-11,8.13-11Z" style="fill:none;stroke:#263238;stroke-linecap:round;stroke-linejoin:round;stroke-width:0.8297007805211063px"></path><polygon points="164.58 90.48 189.44 110.39 179.76 116.1 162.62 106.21 164.58 90.48" style="fill:#fff"></polygon><g style="clip-path:url(#freepik--clip-path-3--inject-93)"><path d="M181.13,113.22l-8.44-6.14s3.84-.77,4.6-1.79-9-.76-9-.76l3.07-4.1-5.88,2V99.91l-1.62-4-1.28,10.28,17.14,9.89,1.48-.88Z" style="fill:#00ADEF;opacity:0.5;isolation:isolate"></path></g><polygon points="164.58 90.48 189.44 110.39 179.76 116.1 162.62 106.21 164.58 90.48" style="fill:none;stroke:#263238;stroke-linecap:round;stroke-linejoin:round;stroke-width:0.8297007805211063px"></polygon><path d="M131.32,87s2.13,5.74,4.58,8,4.6,1.8,6.23-.33,3.44-9.18,3.94-9.51,2.29-2,2.29-3.6-2.12-.82-2.46-.16l-.33.65-1.63-3.44a33.32,33.32,0,0,1-2.79,5.53c-1.31,1.81-1.64,3.12-2.94,2.14s-2.31-2.46-3.32-.82S131.32,87,131.32,87Z" style="fill:#fff;stroke:#263238;stroke-linecap:round;stroke-linejoin:round;stroke-width:0.8297007805211063px"></path><path d="M145.9,81.47l-.33.65-1.63-3.44a33.32,33.32,0,0,1-2.79,5.53c-1.31,1.81-1.64,3.12-2.94,2.14s-2.31-2.46-3.32-.82S131.28,87,131.28,87s.5,1.35,1.29,3c4.23.22,11.07-.18,12.64-4.8v1.94A6.76,6.76,0,0,1,146,85.2c.48-.32,2.29-2,2.29-3.61S146.24,80.81,145.9,81.47Z" style="fill:#00ADEF;opacity:0.5;isolation:isolate"></path><path d="M133.19,88.92s2.29,1,3.11.35c0,0,.17,4.56,1.31,4.15l1.45-1" style="fill:none;stroke:#263238;stroke-linecap:round;stroke-linejoin:round;stroke-width:0.5531338536807375px"></path><path d="M139.69,89.06s1.2,1,3.07-.65" style="fill:none;stroke:#263238;stroke-linecap:round;stroke-linejoin:round;stroke-width:0.5531338536807375px"></path><path d="M138.86,88.23s0-2.49,3.94-2.28" style="fill:none;stroke:#263238;stroke-linecap:round;stroke-linejoin:round;stroke-width:0.5531338536807375px"></path><path d="M136.3,89.27a3.74,3.74,0,0,0-2.63-2.7" style="fill:none;stroke:#263238;stroke-linecap:round;stroke-linejoin:round;stroke-width:0.5531338536807375px"></path><path d="M136.78,94.24a3.21,3.21,0,0,0,3.74-.83" style="fill:none;stroke:#263238;stroke-linecap:round;stroke-linejoin:round;stroke-width:0.5531338536807375px"></path><path d="M147.54,81.63s4.53-4.76,2.05-10.23c-1.63-3.59-1.88-3.45-5.82-7.63s-12-1.9-14.7,1-.83,8.08-1.87,8.7-7.26,2.49-7,5,7,3.73,6.22,4.56-6.22.62-3.73,2.7,9.67,3.13,15.57.67,5.53-6.07,5.53-6.07S144.47,84.39,147.54,81.63Z" style="fill:#263238;stroke:#263238;stroke-linecap:round;stroke-linejoin:round;stroke-width:0.8297007805211063px"></path><path d="M133.05,85.93s3.5.62,7.6-2.67,1.23-7.74,1.23-7.74" style="fill:none;stroke:#fff;stroke-linecap:round;stroke-linejoin:round;stroke-width:0.5531338536807375px"></path><path d="M144.54,72.18s2.22,7.17.21,9.13" style="fill:none;stroke:#fff;stroke-linecap:round;stroke-linejoin:round;stroke-width:0.5531338536807375px"></path><path d="M126.37,83s6.64,1.48,9.95-2.21" style="fill:none;stroke:#fff;stroke-linecap:round;stroke-linejoin:round;stroke-width:0.5531338536807375px"></path><path d="M111.32,128.84s-5-1.1-4.15-3.87,0-5.81,6.09-5.26,8.57,1.94,8.57,4.71-.83,7.46-4.15,6.08A24.05,24.05,0,0,0,111.32,128.84Z" style="fill:#fff;stroke:#263238;stroke-linecap:round;stroke-linejoin:round;stroke-width:0.8297007805211063px"></path><polyline points="169.58 101.66 162.62 106.21 174.77 103.39" style="fill:none;stroke:#263238;stroke-linecap:round;stroke-linejoin:round;stroke-width:0.5531338536807375px"></polyline><line x1="124.76" y1="116.86" x2="119.25" y2="111.59" style="fill:none;stroke:#263238;stroke-linecap:round;stroke-linejoin:round;stroke-width:0.5531338536807375px"></line><line x1="122.29" y1="115.91" x2="118.61" y2="113.96" style="fill:none;stroke:#263238;stroke-linecap:round;stroke-linejoin:round;stroke-width:0.5531338536807375px"></line><polyline points="157.92 109.22 151.44 109.43 151.44 111.37 157.49 111.37" style="fill:none;stroke:#263238;stroke-linecap:round;stroke-linejoin:round;stroke-width:0.5531338536807375px"></polyline><path d="M110.25,126.78s-3.06-1.57-1.79-2.56a9.59,9.59,0,0,1,6.64-1.28,17.64,17.64,0,0,1,3.83,1.54s-3.31-2.56-1.28-2.56,3.32,2.56,2.56,5.12-3.84,1.79-3.84,1.79Z" style="fill:#00ADEF;opacity:0.5;isolation:isolate"></path><path d="M258.29,387.49V351.61H200.55v35.88a23.24,23.24,0,0,1-6.75,16.41l-13.16,13.28H278.2L265.05,403.9A23.2,23.2,0,0,1,258.29,387.49Z" style="fill:#fff;stroke:#263238;stroke-linecap:round;stroke-linejoin:round;stroke-width:1.106267707361475px"></path><path d="M200.55,351.61v35.88a23.1,23.1,0,0,1-1.49,8.14h60.72a23.32,23.32,0,0,1-1.49-8.14V351.61Z" style="fill:#00ADEF;opacity:0.4399999976158142;isolation:isolate"></path><rect x="200.55" y="353.23" width="57.74" height="26.62" style="fill:#263238;stroke:#263238;stroke-miterlimit:10;stroke-width:1.106267707361475px"></rect><rect x="180.64" y="417.18" width="97.55" height="1.9" style="fill:#fff;stroke:#263238;stroke-linecap:round;stroke-linejoin:round;stroke-width:1.106267707361475px"></rect><path d="M89.39,132H369.46A13.53,13.53,0,0,1,383,145.56h0V354.64a14.69,14.69,0,0,1-14.73,14.64H90.59A14.68,14.68,0,0,1,75.91,354.6V145.51A13.53,13.53,0,0,1,89.39,132Z" style="fill:#263238;stroke:#263238;stroke-miterlimit:10;stroke-width:1.106267707361475px"></path><path d="M75.86,341.82H383V354.6a14.68,14.68,0,0,1-14.68,14.68H90.59A14.68,14.68,0,0,1,75.91,354.6V341.82Z" style="fill:#fff;stroke:#263238;stroke-miterlimit:10;stroke-width:1.106267707361475px"></path><rect x="120.49" y="146.98" width="274.59" height="183.05" style="fill:#fff;stroke:#263238;stroke-linecap:round;stroke-linejoin:round;stroke-width:0.8297007805211063px"></rect><rect x="120.49" y="146.98" width="274.59" height="59.32" style="fill:#00ADEF"></rect><path d="M148.47,317.7H137.41V221h11.06Zm21.68-96.76h-11V317.7h11.06Zm21.69,0H180.77V317.7h11.07Zm21.67,0H202.45V317.7h11.06Zm21.68,0H224.13V317.7h11.06Zm21.67,0H245.8V317.7h11.06Zm21.69,0H267.48V317.7h11.07Zm21.68,0H289.17V317.7h11.06Zm21.67,0H310.84V317.7H321.9Zm21.68,0H332.52V317.7h11.06Z" style="fill:#00ADEF"></path><path d="M148.47,317.7H137.41V221h11.06Zm21.68-96.76h-11V317.7h11.06Zm21.69,0H180.77V317.7h11.07Zm21.67,0H202.45V317.7h11.06Zm21.68,0H224.13V317.7h11.06Zm21.67,0H245.8V317.7h11.06Zm21.69,0H267.48V317.7h11.07Zm21.68,0H289.17V317.7h11.06Zm21.67,0H310.84V317.7H321.9Zm21.68,0H332.52V317.7h11.06Z" style="fill:#fff;opacity:0.4000000059604645;isolation:isolate"></path><path d="M206.14,169.19H133.43a2.43,2.43,0,0,1-2.43-2.43h0a2.43,2.43,0,0,1,2.43-2.42h72.71a2.42,2.42,0,0,1,2.42,2.42h0a2.42,2.42,0,0,1-2.42,2.43Z" style="fill:#fff;stroke:#263238;stroke-linecap:round;stroke-linejoin:round;stroke-width:0.8297007805211063px"></path><path d="M184.14,169.19H133.43a2.43,2.43,0,0,1-2.43-2.43h0a2.43,2.43,0,0,1,2.43-2.42h50.71Z" style="fill:#263238;stroke:#263238;stroke-linecap:round;stroke-linejoin:round;stroke-width:1.106267707361475px"></path><path d="M206.14,178.7H133.43a2.42,2.42,0,0,1-2.43-2.42h0a2.42,2.42,0,0,1,2.43-2.42h72.71a2.42,2.42,0,0,1,2.42,2.42h0a2.42,2.42,0,0,1-2.42,2.42Z" style="fill:#fff;stroke:#263238;stroke-linecap:round;stroke-linejoin:round;stroke-width:0.8297007805211063px"></path><path d="M193.47,178.7h-60a2.42,2.42,0,0,1-2.43-2.42h0a2.42,2.42,0,0,1,2.43-2.42h60Z" style="fill:#263238;stroke:#263238;stroke-linecap:round;stroke-linejoin:round;stroke-width:1.106267707361475px"></path><path d="M206.14,188.27H133.43a2.42,2.42,0,0,1-2.43-2.42h0a2.43,2.43,0,0,1,2.43-2.43h72.71a2.42,2.42,0,0,1,2.42,2.43h0a2.42,2.42,0,0,1-2.42,2.42Z" style="fill:#fff;stroke:#263238;stroke-linecap:round;stroke-linejoin:round;stroke-width:0.8297007805211063px"></path><path d="M171.17,188.27H133.43a2.42,2.42,0,0,1-2.43-2.42h0a2.43,2.43,0,0,1,2.43-2.43h37.74Z" style="fill:#263238;stroke:#263238;stroke-linecap:round;stroke-linejoin:round;stroke-width:1.106267707361475px"></path><path d="M206.14,197.73H133.43a2.43,2.43,0,0,1-2.43-2.42h0a2.45,2.45,0,0,1,2.43-2.44h72.71a2.44,2.44,0,0,1,2.42,2.44h0a2.42,2.42,0,0,1-2.42,2.42Z" style="fill:#fff;stroke:#263238;stroke-linecap:round;stroke-linejoin:round;stroke-width:0.8297007805211063px"></path><path d="M203.52,197.73H133.43a2.43,2.43,0,0,1-2.43-2.42h0a2.45,2.45,0,0,1,2.43-2.44h70.09Z" style="fill:#263238;stroke:#263238;stroke-linecap:round;stroke-linejoin:round;stroke-width:1.106267707361475px"></path><line x1="131.53" y1="317.73" x2="349.42" y2="317.73" style="fill:none;stroke:#263238;stroke-linecap:round;stroke-linejoin:round;stroke-width:0.8297007805211063px"></line><line x1="153.32" y1="317.73" x2="153.32" y2="315.54" style="fill:none;stroke:#263238;stroke-linecap:round;stroke-linejoin:round;stroke-width:0.8297007805211063px"></line><line x1="175.11" y1="317.73" x2="175.11" y2="315.54" style="fill:none;stroke:#263238;stroke-linecap:round;stroke-linejoin:round;stroke-width:0.8297007805211063px"></line><line x1="196.9" y1="317.73" x2="196.9" y2="315.54" style="fill:none;stroke:#263238;stroke-linecap:round;stroke-linejoin:round;stroke-width:0.8297007805211063px"></line><line x1="218.69" y1="317.73" x2="218.69" y2="315.54" style="fill:none;stroke:#263238;stroke-linecap:round;stroke-linejoin:round;stroke-width:0.8297007805211063px"></line><line x1="240.48" y1="317.73" x2="240.48" y2="315.54" style="fill:none;stroke:#263238;stroke-linecap:round;stroke-linejoin:round;stroke-width:0.8297007805211063px"></line><line x1="262.27" y1="317.73" x2="262.27" y2="315.54" style="fill:none;stroke:#263238;stroke-linecap:round;stroke-linejoin:round;stroke-width:0.8297007805211063px"></line><line x1="284.06" y1="317.73" x2="284.06" y2="315.54" style="fill:none;stroke:#263238;stroke-linecap:round;stroke-linejoin:round;stroke-width:0.8297007805211063px"></line><line x1="305.85" y1="317.73" x2="305.85" y2="315.54" style="fill:none;stroke:#263238;stroke-linecap:round;stroke-linejoin:round;stroke-width:0.8297007805211063px"></line><line x1="327.64" y1="317.73" x2="327.64" y2="315.54" style="fill:none;stroke:#263238;stroke-linecap:round;stroke-linejoin:round;stroke-width:0.8297007805211063px"></line><line x1="349.42" y1="317.73" x2="349.42" y2="315.54" style="fill:none;stroke:#263238;stroke-linecap:round;stroke-linejoin:round;stroke-width:0.8297007805211063px"></line><polyline points="131.53 317.73 131.53 309.09 131.53 221.28" style="fill:none;stroke:#263238;stroke-linecap:round;stroke-linejoin:round;stroke-width:0.8297007805211063px"></polyline><line x1="131.53" y1="309.09" x2="136.98" y2="309.09" style="fill:none;stroke:#263238;stroke-linecap:round;stroke-linejoin:round;stroke-width:0.8297007805211063px"></line><line x1="131.53" y1="294.45" x2="136.98" y2="294.45" style="fill:none;stroke:#263238;stroke-linecap:round;stroke-linejoin:round;stroke-width:0.8297007805211063px"></line><line x1="131.53" y1="279.81" x2="136.98" y2="279.81" style="fill:none;stroke:#263238;stroke-linecap:round;stroke-linejoin:round;stroke-width:0.8297007805211063px"></line><line x1="131.53" y1="265.19" x2="136.98" y2="265.19" style="fill:none;stroke:#263238;stroke-linecap:round;stroke-linejoin:round;stroke-width:0.8297007805211063px"></line><line x1="131.53" y1="250.55" x2="136.98" y2="250.55" style="fill:none;stroke:#263238;stroke-linecap:round;stroke-linejoin:round;stroke-width:0.8297007805211063px"></line><line x1="131.53" y1="235.92" x2="136.98" y2="235.92" style="fill:none;stroke:#263238;stroke-linecap:round;stroke-linejoin:round;stroke-width:0.8297007805211063px"></line><line x1="131.53" y1="221.28" x2="136.98" y2="221.28" style="fill:none;stroke:#263238;stroke-linecap:round;stroke-linejoin:round;stroke-width:0.8297007805211063px"></line><rect x="353.42" y="162.53" width="35.54" height="36.6" style="fill:#fff;stroke:#263238;stroke-linecap:round;stroke-linejoin:round;stroke-width:0.8297007805211063px"></rect><rect x="353.42" y="162.53" width="35.54" height="6.28" style="fill:#263238;stroke:#263238;stroke-linecap:round;stroke-linejoin:round;stroke-width:1.0078640977828122px"></rect><line x1="356.68" y1="173.93" x2="356.68" y2="194.72" style="fill:none;stroke:#263238;stroke-linecap:round;stroke-linejoin:round;stroke-width:0.8297007805211063px"></line><line x1="361.48" y1="173.93" x2="361.48" y2="194.72" style="fill:none;stroke:#263238;stroke-linecap:round;stroke-linejoin:round;stroke-width:0.8297007805211063px"></line><line x1="366.27" y1="173.93" x2="366.27" y2="194.72" style="fill:none;stroke:#263238;stroke-linecap:round;stroke-linejoin:round;stroke-width:0.8297007805211063px"></line><line x1="371.07" y1="173.93" x2="371.07" y2="194.72" style="fill:none;stroke:#263238;stroke-linecap:round;stroke-linejoin:round;stroke-width:0.8297007805211063px"></line><line x1="375.88" y1="173.93" x2="375.88" y2="194.72" style="fill:none;stroke:#263238;stroke-linecap:round;stroke-linejoin:round;stroke-width:0.8297007805211063px"></line><line x1="380.68" y1="173.93" x2="380.68" y2="194.72" style="fill:none;stroke:#263238;stroke-linecap:round;stroke-linejoin:round;stroke-width:0.8297007805211063px"></line><line x1="385.48" y1="173.93" x2="385.48" y2="194.72" style="fill:none;stroke:#263238;stroke-linecap:round;stroke-linejoin:round;stroke-width:0.8297007805211063px"></line><line x1="385.16" y1="176.65" x2="356.84" y2="176.65" style="fill:none;stroke:#263238;stroke-linecap:round;stroke-linejoin:round;stroke-width:0.8297007805211063px"></line><line x1="385.16" y1="180.49" x2="356.84" y2="180.49" style="fill:none;stroke:#263238;stroke-linecap:round;stroke-linejoin:round;stroke-width:0.8297007805211063px"></line><line x1="385.16" y1="184.33" x2="356.84" y2="184.33" style="fill:none;stroke:#263238;stroke-linecap:round;stroke-linejoin:round;stroke-width:0.8297007805211063px"></line><line x1="385.16" y1="188.17" x2="356.84" y2="188.17" style="fill:none;stroke:#263238;stroke-linecap:round;stroke-linejoin:round;stroke-width:0.8297007805211063px"></line><line x1="385.16" y1="192.01" x2="356.84" y2="192.01" style="fill:none;stroke:#263238;stroke-linecap:round;stroke-linejoin:round;stroke-width:0.8297007805211063px"></line><line x1="164.21" y1="273.83" x2="142.43" y2="317.73" style="fill:none;stroke:#263238;stroke-linecap:round;stroke-linejoin:round;stroke-width:2.21253541472295px"></line><line x1="186.01" y1="303.09" x2="164.21" y2="273.83" style="fill:none;stroke:#263238;stroke-linecap:round;stroke-linejoin:round;stroke-width:2.21253541472295px"></line><line x1="207.8" y1="279.68" x2="186.01" y2="303.09" style="fill:none;stroke:#263238;stroke-linecap:round;stroke-linejoin:round;stroke-width:2.21253541472295px"></line><line x1="229.58" y1="229.93" x2="207.8" y2="279.68" style="fill:none;stroke:#263238;stroke-linecap:round;stroke-linejoin:round;stroke-width:2.21253541472295px"></line><line x1="251.38" y1="244.56" x2="229.58" y2="229.93" style="fill:none;stroke:#263238;stroke-linecap:round;stroke-linejoin:round;stroke-width:2.21253541472295px"></line><line x1="273.16" y1="295.78" x2="251.38" y2="244.56" style="fill:none;stroke:#263238;stroke-linecap:round;stroke-linejoin:round;stroke-width:2.21253541472295px"></line><line x1="294.95" y1="291.39" x2="273.16" y2="295.78" style="fill:none;stroke:#263238;stroke-linecap:round;stroke-linejoin:round;stroke-width:2.21253541472295px"></line><line x1="316.75" y1="285.53" x2="294.95" y2="291.39" style="fill:none;stroke:#263238;stroke-linecap:round;stroke-linejoin:round;stroke-width:2.21253541472295px"></line><line x1="338.53" y1="259.19" x2="316.75" y2="285.53" style="fill:none;stroke:#263238;stroke-linecap:round;stroke-linejoin:round;stroke-width:2.21253541472295px"></line><path d="M142.43,315.49h0a2.28,2.28,0,0,1,2.28,2.28h0a2.29,2.29,0,0,1-2.28,2.29h0a2.3,2.3,0,0,1-2.29-2.29h0A2.29,2.29,0,0,1,142.43,315.49Z" style="fill:#fff;stroke:#263238;stroke-linecap:round;stroke-linejoin:round;stroke-width:0.8297007805211063px"></path><path d="M164.21,271.55h0a2.29,2.29,0,0,1,2.29,2.28h0a2.29,2.29,0,0,1-2.29,2.28h0a2.28,2.28,0,0,1-2.28-2.28h0A2.28,2.28,0,0,1,164.21,271.55Z" style="fill:#fff;stroke:#263238;stroke-linecap:round;stroke-linejoin:round;stroke-width:0.8297007805211063px"></path><path d="M186,300.81h0a2.28,2.28,0,0,1,2.28,2.28h0a2.29,2.29,0,0,1-2.28,2.29h0a2.29,2.29,0,0,1-2.28-2.29h0A2.28,2.28,0,0,1,186,300.81Z" style="fill:#fff;stroke:#263238;stroke-linecap:round;stroke-linejoin:round;stroke-width:0.8297007805211063px"></path><path d="M207.86,277.4h0a2.28,2.28,0,0,1,2.27,2.28h0a2.28,2.28,0,0,1-2.27,2.28h0a2.29,2.29,0,0,1-2.29-2.28h0A2.29,2.29,0,0,1,207.86,277.4Z" style="fill:#fff;stroke:#263238;stroke-linecap:round;stroke-linejoin:round;stroke-width:0.8297007805211063px"></path><path d="M229.58,227.64h0a2.29,2.29,0,0,1,2.29,2.29h0a2.29,2.29,0,0,1-2.29,2.28h0a2.28,2.28,0,0,1-2.28-2.28h0A2.29,2.29,0,0,1,229.58,227.64Z" style="fill:#fff;stroke:#263238;stroke-linecap:round;stroke-linejoin:round;stroke-width:0.8297007805211063px"></path><path d="M251.38,242.28h0a2.29,2.29,0,0,1,2.28,2.28h0a2.29,2.29,0,0,1-2.28,2.29h0a2.29,2.29,0,0,1-2.28-2.29h0A2.28,2.28,0,0,1,251.38,242.28Z" style="fill:#fff;stroke:#263238;stroke-linecap:round;stroke-linejoin:round;stroke-width:0.8297007805211063px"></path><path d="M273.13,293.5h0a2.29,2.29,0,0,1,2.29,2.28h0a2.29,2.29,0,0,1-2.29,2.28h0a2.28,2.28,0,0,1-2.28-2.28h0A2.28,2.28,0,0,1,273.13,293.5Z" style="fill:#fff;stroke:#263238;stroke-linecap:round;stroke-linejoin:round;stroke-width:0.8297007805211063px"></path><path d="M295,289.11h0a2.28,2.28,0,0,1,2.28,2.28h0a2.29,2.29,0,0,1-2.28,2.29h0a2.29,2.29,0,0,1-2.28-2.29h0A2.28,2.28,0,0,1,295,289.11Z" style="fill:#fff;stroke:#263238;stroke-linecap:round;stroke-linejoin:round;stroke-width:0.8297007805211063px"></path><path d="M316.75,283.25h0a2.28,2.28,0,0,1,2.27,2.28h0a2.28,2.28,0,0,1-2.27,2.28h0a2.29,2.29,0,0,1-2.29-2.28h0A2.29,2.29,0,0,1,316.75,283.25Z" style="fill:#fff;stroke:#263238;stroke-linecap:round;stroke-linejoin:round;stroke-width:0.8297007805211063px"></path><path d="M338.53,256.91h0a2.29,2.29,0,0,1,2.29,2.28h0a2.29,2.29,0,0,1-2.29,2.28h0a2.28,2.28,0,0,1-2.28-2.28h0A2.28,2.28,0,0,1,338.53,256.91Z" style="fill:#fff;stroke:#263238;stroke-linecap:round;stroke-linejoin:round;stroke-width:0.8297007805211063px"></path><path d="M170.39,263.66h-11.9a3,3,0,0,1-3-3h0a3,3,0,0,1,2.95-3h11.91a3,3,0,0,1,3,3v0h0a3,3,0,0,1-3,3Z" style="fill:#fff;stroke:#263238;stroke-linecap:round;stroke-linejoin:round;stroke-width:0.8297007805211063px"></path><line x1="164.21" y1="271.55" x2="164.21" y2="263.95" style="fill:none;stroke:#263238;stroke-linecap:round;stroke-linejoin:round;stroke-width:0.8297007805211063px"></line><path d="M235.51,219.84H223.58a3,3,0,0,1-3-3h0a3,3,0,0,1,3-3h12a3,3,0,0,1,3,3h0A3,3,0,0,1,235.51,219.84Z" style="fill:#fff;stroke:#263238;stroke-linecap:round;stroke-linejoin:round;stroke-width:0.8297007805211063px"></path><line x1="229.3" y1="227.73" x2="229.3" y2="220.13" style="fill:none;stroke:#263238;stroke-linecap:round;stroke-linejoin:round;stroke-width:0.8297007805211063px"></line><path d="M344.21,248.66H332.32a3,3,0,0,1-3-3h0a3,3,0,0,1,3-3h11.89a3,3,0,0,1,3,2.9v.07h0a3,3,0,0,1-3,3Z" style="fill:#fff;stroke:#263238;stroke-linecap:round;stroke-linejoin:round;stroke-width:0.8297007805211063px"></path><line x1="338.04" y1="256.55" x2="338.04" y2="248.95" style="fill:none;stroke:#263238;stroke-linecap:round;stroke-linejoin:round;stroke-width:0.8297007805211063px"></line><path d="M238.69,162.53a17.19,17.19,0,1,0,17.19,17.19h0A17.2,17.2,0,0,0,238.69,162.53Zm0,29.32a12.17,12.17,0,1,1,12.17-12.16,12.16,12.16,0,0,1-12.17,12.16Z" style="fill:#fff;stroke:#263238;stroke-linecap:round;stroke-linejoin:round;stroke-width:0.8297007805211063px"></path><path d="M238.69,162.53a17,17,0,0,0-12.4,5.3l3.64,3.49a12,12,0,0,1,8.76-3.75,12.17,12.17,0,1,1,0,24.34h0v5a17.19,17.19,0,0,0,.87-34.37h-.87Z" style="fill:#263238;stroke:#263238;stroke-linecap:round;stroke-linejoin:round;stroke-width:1.0078640977828122px"></path><line x1="233.91" y1="178.81" x2="243.48" y2="178.81" style="fill:none;stroke:#263238;stroke-linecap:round;stroke-linejoin:round;stroke-width:0.8297007805211063px"></line><line x1="233.91" y1="180.63" x2="243.48" y2="180.63" style="fill:none;stroke:#263238;stroke-linecap:round;stroke-linejoin:round;stroke-width:0.8297007805211063px"></line><line x1="132.35" y1="158.98" x2="141.92" y2="158.98" style="fill:none;stroke:#263238;stroke-linecap:round;stroke-linejoin:round;stroke-width:0.8297007805211063px"></line><line x1="132.35" y1="160.79" x2="141.92" y2="160.79" style="fill:none;stroke:#263238;stroke-linecap:round;stroke-linejoin:round;stroke-width:0.8297007805211063px"></line><line x1="144.18" y1="158.98" x2="153.75" y2="158.98" style="fill:none;stroke:#263238;stroke-linecap:round;stroke-linejoin:round;stroke-width:0.8297007805211063px"></line><line x1="144.18" y1="160.79" x2="153.75" y2="160.79" style="fill:none;stroke:#263238;stroke-linecap:round;stroke-linejoin:round;stroke-width:0.8297007805211063px"></line><line x1="155.99" y1="158.98" x2="165.56" y2="158.98" style="fill:none;stroke:#263238;stroke-linecap:round;stroke-linejoin:round;stroke-width:0.8297007805211063px"></line><line x1="155.99" y1="160.79" x2="165.56" y2="160.79" style="fill:none;stroke:#263238;stroke-linecap:round;stroke-linejoin:round;stroke-width:0.8297007805211063px"></line><line x1="132.35" y1="212.2" x2="141.92" y2="212.2" style="fill:none;stroke:#263238;stroke-linecap:round;stroke-linejoin:round;stroke-width:0.8297007805211063px"></line><line x1="132.35" y1="214" x2="141.92" y2="214" style="fill:none;stroke:#263238;stroke-linecap:round;stroke-linejoin:round;stroke-width:0.8297007805211063px"></line><line x1="144.18" y1="212.2" x2="153.75" y2="212.2" style="fill:none;stroke:#263238;stroke-linecap:round;stroke-linejoin:round;stroke-width:0.8297007805211063px"></line><line x1="144.18" y1="214" x2="153.75" y2="214" style="fill:none;stroke:#263238;stroke-linecap:round;stroke-linejoin:round;stroke-width:0.8297007805211063px"></line><line x1="155.99" y1="212.2" x2="165.56" y2="212.2" style="fill:none;stroke:#263238;stroke-linecap:round;stroke-linejoin:round;stroke-width:0.8297007805211063px"></line><line x1="155.99" y1="214" x2="165.56" y2="214" style="fill:none;stroke:#263238;stroke-linecap:round;stroke-linejoin:round;stroke-width:0.8297007805211063px"></line><line x1="355.74" y1="221.35" x2="365.31" y2="221.35" style="fill:none;stroke:#263238;stroke-linecap:round;stroke-linejoin:round;stroke-width:0.8297007805211063px"></line><line x1="367.57" y1="221.35" x2="377.14" y2="221.35" style="fill:none;stroke:#263238;stroke-linecap:round;stroke-linejoin:round;stroke-width:0.8297007805211063px"></line><line x1="379.38" y1="221.35" x2="388.95" y2="221.35" style="fill:none;stroke:#263238;stroke-linecap:round;stroke-linejoin:round;stroke-width:0.8297007805211063px"></line><line x1="355.74" y1="223.57" x2="365.31" y2="223.57" style="fill:none;stroke:#263238;stroke-linecap:round;stroke-linejoin:round;stroke-width:0.8297007805211063px"></line><line x1="367.57" y1="223.57" x2="377.14" y2="223.57" style="fill:none;stroke:#263238;stroke-linecap:round;stroke-linejoin:round;stroke-width:0.8297007805211063px"></line><line x1="379.38" y1="223.57" x2="388.95" y2="223.57" style="fill:none;stroke:#263238;stroke-linecap:round;stroke-linejoin:round;stroke-width:0.8297007805211063px"></line><line x1="355.74" y1="225.81" x2="365.31" y2="225.81" style="fill:none;stroke:#263238;stroke-linecap:round;stroke-linejoin:round;stroke-width:0.8297007805211063px"></line><line x1="367.57" y1="225.81" x2="377.14" y2="225.81" style="fill:none;stroke:#263238;stroke-linecap:round;stroke-linejoin:round;stroke-width:0.8297007805211063px"></line><line x1="379.38" y1="225.81" x2="388.95" y2="225.81" style="fill:none;stroke:#263238;stroke-linecap:round;stroke-linejoin:round;stroke-width:0.8297007805211063px"></line><line x1="355.74" y1="228.03" x2="365.31" y2="228.03" style="fill:none;stroke:#263238;stroke-linecap:round;stroke-linejoin:round;stroke-width:0.8297007805211063px"></line><line x1="367.57" y1="228.03" x2="377.14" y2="228.03" style="fill:none;stroke:#263238;stroke-linecap:round;stroke-linejoin:round;stroke-width:0.8297007805211063px"></line><line x1="379.38" y1="228.03" x2="388.95" y2="228.03" style="fill:none;stroke:#263238;stroke-linecap:round;stroke-linejoin:round;stroke-width:0.8297007805211063px"></line><line x1="355.74" y1="230.26" x2="365.31" y2="230.26" style="fill:none;stroke:#263238;stroke-linecap:round;stroke-linejoin:round;stroke-width:0.8297007805211063px"></line><line x1="367.57" y1="230.26" x2="377.14" y2="230.26" style="fill:none;stroke:#263238;stroke-linecap:round;stroke-linejoin:round;stroke-width:0.8297007805211063px"></line><line x1="379.38" y1="230.26" x2="388.95" y2="230.26" style="fill:none;stroke:#263238;stroke-linecap:round;stroke-linejoin:round;stroke-width:0.8297007805211063px"></line><line x1="355.74" y1="232.5" x2="365.31" y2="232.5" style="fill:none;stroke:#263238;stroke-linecap:round;stroke-linejoin:round;stroke-width:0.8297007805211063px"></line><line x1="367.57" y1="232.5" x2="377.14" y2="232.5" style="fill:none;stroke:#263238;stroke-linecap:round;stroke-linejoin:round;stroke-width:0.8297007805211063px"></line><line x1="379.38" y1="232.5" x2="388.95" y2="232.5" style="fill:none;stroke:#263238;stroke-linecap:round;stroke-linejoin:round;stroke-width:0.8297007805211063px"></line><line x1="355.74" y1="234.72" x2="365.31" y2="234.72" style="fill:none;stroke:#263238;stroke-linecap:round;stroke-linejoin:round;stroke-width:0.8297007805211063px"></line><line x1="367.57" y1="234.72" x2="377.14" y2="234.72" style="fill:none;stroke:#263238;stroke-linecap:round;stroke-linejoin:round;stroke-width:0.8297007805211063px"></line><line x1="379.38" y1="234.72" x2="388.95" y2="234.72" style="fill:none;stroke:#263238;stroke-linecap:round;stroke-linejoin:round;stroke-width:0.8297007805211063px"></line><line x1="355.74" y1="236.96" x2="365.31" y2="236.96" style="fill:none;stroke:#263238;stroke-linecap:round;stroke-linejoin:round;stroke-width:0.8297007805211063px"></line><line x1="367.57" y1="236.96" x2="377.14" y2="236.96" style="fill:none;stroke:#263238;stroke-linecap:round;stroke-linejoin:round;stroke-width:0.8297007805211063px"></line><line x1="379.38" y1="236.96" x2="388.95" y2="236.96" style="fill:none;stroke:#263238;stroke-linecap:round;stroke-linejoin:round;stroke-width:0.8297007805211063px"></line><line x1="355.74" y1="239.18" x2="365.31" y2="239.18" style="fill:none;stroke:#263238;stroke-linecap:round;stroke-linejoin:round;stroke-width:0.8297007805211063px"></line><line x1="367.57" y1="239.18" x2="377.14" y2="239.18" style="fill:none;stroke:#263238;stroke-linecap:round;stroke-linejoin:round;stroke-width:0.8297007805211063px"></line><line x1="379.38" y1="239.18" x2="388.95" y2="239.18" style="fill:none;stroke:#263238;stroke-linecap:round;stroke-linejoin:round;stroke-width:0.8297007805211063px"></line><line x1="355.74" y1="241.42" x2="365.31" y2="241.42" style="fill:none;stroke:#263238;stroke-linecap:round;stroke-linejoin:round;stroke-width:0.8297007805211063px"></line><line x1="367.57" y1="241.42" x2="377.14" y2="241.42" style="fill:none;stroke:#263238;stroke-linecap:round;stroke-linejoin:round;stroke-width:0.8297007805211063px"></line><line x1="379.38" y1="241.42" x2="388.95" y2="241.42" style="fill:none;stroke:#263238;stroke-linecap:round;stroke-linejoin:round;stroke-width:0.8297007805211063px"></line><line x1="355.74" y1="243.65" x2="365.31" y2="243.65" style="fill:none;stroke:#263238;stroke-linecap:round;stroke-linejoin:round;stroke-width:0.8297007805211063px"></line><line x1="367.57" y1="243.65" x2="377.14" y2="243.65" style="fill:none;stroke:#263238;stroke-linecap:round;stroke-linejoin:round;stroke-width:0.8297007805211063px"></line><line x1="379.38" y1="243.65" x2="388.95" y2="243.65" style="fill:none;stroke:#263238;stroke-linecap:round;stroke-linejoin:round;stroke-width:0.8297007805211063px"></line><line x1="355.74" y1="245.87" x2="365.31" y2="245.87" style="fill:none;stroke:#263238;stroke-linecap:round;stroke-linejoin:round;stroke-width:0.8297007805211063px"></line><line x1="367.57" y1="245.87" x2="377.14" y2="245.87" style="fill:none;stroke:#263238;stroke-linecap:round;stroke-linejoin:round;stroke-width:0.8297007805211063px"></line><line x1="379.38" y1="245.87" x2="388.95" y2="245.87" style="fill:none;stroke:#263238;stroke-linecap:round;stroke-linejoin:round;stroke-width:0.8297007805211063px"></line><line x1="355.74" y1="248.11" x2="365.31" y2="248.11" style="fill:none;stroke:#263238;stroke-linecap:round;stroke-linejoin:round;stroke-width:0.8297007805211063px"></line><line x1="367.57" y1="248.11" x2="377.14" y2="248.11" style="fill:none;stroke:#263238;stroke-linecap:round;stroke-linejoin:round;stroke-width:0.8297007805211063px"></line><line x1="379.38" y1="248.11" x2="388.95" y2="248.11" style="fill:none;stroke:#263238;stroke-linecap:round;stroke-linejoin:round;stroke-width:0.8297007805211063px"></line><line x1="355.74" y1="250.33" x2="365.31" y2="250.33" style="fill:none;stroke:#263238;stroke-linecap:round;stroke-linejoin:round;stroke-width:0.8297007805211063px"></line><line x1="367.57" y1="250.33" x2="377.14" y2="250.33" style="fill:none;stroke:#263238;stroke-linecap:round;stroke-linejoin:round;stroke-width:0.8297007805211063px"></line><line x1="379.38" y1="250.33" x2="388.95" y2="250.33" style="fill:none;stroke:#263238;stroke-linecap:round;stroke-linejoin:round;stroke-width:0.8297007805211063px"></line><line x1="355.74" y1="252.57" x2="365.31" y2="252.57" style="fill:none;stroke:#263238;stroke-linecap:round;stroke-linejoin:round;stroke-width:0.8297007805211063px"></line><line x1="367.57" y1="252.57" x2="377.14" y2="252.57" style="fill:none;stroke:#263238;stroke-linecap:round;stroke-linejoin:round;stroke-width:0.8297007805211063px"></line><line x1="379.38" y1="252.57" x2="388.95" y2="252.57" style="fill:none;stroke:#263238;stroke-linecap:round;stroke-linejoin:round;stroke-width:0.8297007805211063px"></line><path d="M279,162.53a17.19,17.19,0,1,0,17.18,17.2h0A17.21,17.21,0,0,0,279,162.53Zm0,29.32a12.17,12.17,0,1,1,12.17-12.16A12.16,12.16,0,0,1,279,191.85Z" style="fill:#fff;stroke:#263238;stroke-linecap:round;stroke-linejoin:round;stroke-width:0.8297007805211063px"></path><path d="M290.83,176.83l4.75-1.78a17.17,17.17,0,0,0-28.94-7.22l3.64,3.49a12.13,12.13,0,0,1,20.55,5.51Z" style="fill:#263238;stroke:#263238;stroke-linecap:round;stroke-linejoin:round;stroke-width:1.0078640977828122px"></path><line x1="273.99" y1="178.81" x2="283.56" y2="178.81" style="fill:none;stroke:#263238;stroke-linecap:round;stroke-linejoin:round;stroke-width:0.8297007805211063px"></line><line x1="273.99" y1="180.63" x2="283.56" y2="180.63" style="fill:none;stroke:#263238;stroke-linecap:round;stroke-linejoin:round;stroke-width:0.8297007805211063px"></line><path d="M334.73,169.31a17.18,17.18,0,1,0-3.26,24.08A17.17,17.17,0,0,0,334.73,169.31ZM311.4,187.08a12.17,12.17,0,1,1,17.06,2.28l0,0A12.18,12.18,0,0,1,311.4,187.08Z" style="fill:#fff;stroke:#263238;stroke-linecap:round;stroke-linejoin:round;stroke-width:0.8297007805211063px"></path><path d="M330.49,187.34l4.3,2.71A17.19,17.19,0,0,0,323,162.64l-.58,5a12.17,12.17,0,0,1,8.06,19.69Z" style="fill:#263238;stroke:#263238;stroke-linecap:round;stroke-linejoin:round;stroke-width:1.0078640977828122px"></path><line x1="316.04" y1="178.81" x2="325.61" y2="178.81" style="fill:none;stroke:#263238;stroke-linecap:round;stroke-linejoin:round;stroke-width:0.8297007805211063px"></line><line x1="316.04" y1="180.63" x2="325.61" y2="180.63" style="fill:none;stroke:#263238;stroke-linecap:round;stroke-linejoin:round;stroke-width:0.8297007805211063px"></line><path d="M385.62,289.53a17.18,17.18,0,1,0-3.26,24.08A17.18,17.18,0,0,0,385.62,289.53Zm-23.33,17.75a12.17,12.17,0,1,1,17.06,2.3h0A12.17,12.17,0,0,1,362.29,307.28Z" style="fill:#00ADEF;stroke:#263238;stroke-linecap:round;stroke-linejoin:round;stroke-width:1.106267707361475px"></path><path d="M381.37,307.56l4.31,2.7a17.18,17.18,0,0,0-11.78-27.4l-.58,5a12.16,12.16,0,0,1,8.05,19.69Z" style="fill:#263238;stroke:#263238;stroke-linecap:round;stroke-linejoin:round;stroke-width:1.0078640977828122px"></path><line x1="366.93" y1="299.03" x2="376.5" y2="299.03" style="fill:none;stroke:#263238;stroke-linecap:round;stroke-linejoin:round;stroke-width:0.8297007805211063px"></line><line x1="366.93" y1="300.83" x2="376.5" y2="300.83" style="fill:none;stroke:#263238;stroke-linecap:round;stroke-linejoin:round;stroke-width:0.8297007805211063px"></line><path d="M185.56,107.07s-6.1,2.35-7.86,5.45c-1.11,1.88-.1,5.86,4.27,7.38,1.88.67,4.58-.19,7.62-1.29S190,105.69,185.56,107.07Z" style="fill:#fff;stroke:#263238;stroke-linecap:round;stroke-linejoin:round;stroke-width:0.8297007805211063px"></path><path d="M183.52,118.92s-4-.84-4-4.16,5.37-5.38,6.91-5.38,2.3,1.54,2.3,4.1S185.73,119.77,183.52,118.92Z" style="fill:#00ADEF;opacity:0.5;isolation:isolate"></path><path d="M109.4,125.38l10.85,35-1.44,7.91,4,5.75,1.44-.72.72-5.4v-4.31l1.8,5.75,1.79-1.11-1.1-8.27-3.6-5.76-5-27.3S114,124.41,109.4,125.38Z" style="fill:#fff;stroke:#263238;stroke-linecap:round;stroke-linejoin:round;stroke-width:0.8297007805211063px"></path><line x1="122.61" y1="173.49" x2="119.84" y2="167.21" style="fill:none;stroke:#263238;stroke-linecap:round;stroke-linejoin:round;stroke-width:0.5531338536807375px"></line><line x1="124.17" y1="173.27" x2="121.88" y2="165.76" style="fill:none;stroke:#263238;stroke-linecap:round;stroke-linejoin:round;stroke-width:0.5531338536807375px"></line><path d="M189.71,112.05l19.64,24.72,6.13,5.2.6,7-1.58.36-4-3.71-2.74-3.32,2.27,5.53-2.08.31L203.55,141l.09-4.89-20.12-17.22c-1.66-1.44-1.34-5.73.56-6.83A6.27,6.27,0,0,1,189.71,112.05Z" style="fill:#fff;stroke:#263238;stroke-linecap:round;stroke-linejoin:round;stroke-width:0.8297007805211063px"></path><line x1="215.42" y1="149.24" x2="210.61" y2="140.78" style="fill:none;stroke:#263238;stroke-linecap:round;stroke-linejoin:round;stroke-width:0.5531338536807375px"></line><line x1="215.28" y1="146.18" x2="213.09" y2="141.51" style="fill:none;stroke:#263238;stroke-linecap:round;stroke-linejoin:round;stroke-width:0.5531338536807375px"></line></g></g><g id="freepik--Character--inject-93"><g id="freepik--character--inject-93"><polygon points="410.09 250.87 398.51 234.78 395.75 235.96 403.41 254.4 410.09 250.87" style="fill:#fff;stroke:#263238;stroke-linecap:round;stroke-linejoin:round;stroke-width:0.8297007805211063px"></polygon><path d="M388.18,231.23l2.66,1.6.73-1-3.43-5.65c-.47-1.52.75-.47.75-.47l2.68,3.71-2.5-6.64c.5-1.4,1.42-.36,1.42-.36l2.77,5.65-.65-6.08c.45-1.25,1.11,0,1.11,0l1.79,6.52c.09-1.17.25-2,.41-3.15.09-.71-.13-1,.48-1.11,1.1-.16.84,1.39.88,2.09.09,1.37.18,2.74.26,4.1l1,4.89-2.81,1.25-4.31-1.41-3.77-2.85C387.07,230.91,388.18,231.23,388.18,231.23Z" style="fill:#fff;stroke:#263238;stroke-linecap:round;stroke-linejoin:round;stroke-width:0.8297007805211063px"></path><path d="M408.71,251.33s-3.32.19-4.7,1.37-2.21,2.16-3.32,2a1.46,1.46,0,0,0-2,1.37c-.19,1.17.39,2,.39,2.55S398,263.3,398,265.06s.58,2.21,2.15,2.95a11.44,11.44,0,0,0,3.53,1,38.8,38.8,0,0,1,.2,5.7,5.6,5.6,0,0,1-1,2.74,59.81,59.81,0,0,0,6.28.4,16.85,16.85,0,0,0,4.31-.4s-5.1-5.29-5.1-11.77,1.38-10.59,2.22-12S410.88,251.86,408.71,251.33Z" style="fill:#fff;stroke:#263238;stroke-linecap:round;stroke-linejoin:round;stroke-width:0.8297007805211063px"></path><path d="M400.28,263.12h0a3.25,3.25,0,0,1-2.28-1.33.31.31,0,1,1,.54-.32h0a2.54,2.54,0,0,0,1.83,1,.31.31,0,0,1,.26.35.3.3,0,0,1-.33.28Z" style="fill:#263238"></path><path d="M402.33,256.35a.47.47,0,0,1-.25-.87h0l1.28-.79a.46.46,0,0,1,.63.15h0a.48.48,0,0,1-.16.65l-1.27.77A.43.43,0,0,1,402.33,256.35Z" style="fill:#263238"></path><path d="M394.39,363.41s.39,9.06,1.3,14.53,9.08,42.35,9.08,44.63S397,431,397,431s-2.21,2.77.53,2.06c2.22-.57,11.61-3,15-5.91,1.48-1.25-1.81-6.37-1.81-6.37s-2.21-34.63-3.62-40.08a93,93,0,0,0-2.72-9.09L408.9,362Z" style="fill:#fff;stroke:#263238;stroke-linecap:round;stroke-linejoin:round;stroke-width:0.8297007805211063px"></path><path d="M407.05,380.66a93,93,0,0,0-2.72-9.09l4.55-9.54-14.49,1.38s.15,3.32.47,7.24a27,27,0,0,0,3.47,1.23,16.63,16.63,0,0,0,3.44.45,38.13,38.13,0,0,1,2.53,11.24c.46,6.42,4.82,38.53,4.82,38.53l.72,6.64a14.11,14.11,0,0,0,2.68-1.63c1.47-1.25-1.82-6.37-1.82-6.37S408.42,386.11,407.05,380.66Z" style="fill:#00ADEF;opacity:0.5;isolation:isolate"></path><path d="M410.9,421.13a11.21,11.21,0,0,0-4.15,1.75l-2-.31c0,2.21-7.8,8.39-7.8,8.39s-2.21,2.77.53,2.06c2.21-.57,11.61-3,15-5.91C413.71,426.12,411.62,422.32,410.9,421.13Z" style="fill:#263238"></path><path d="M397.48,433c2.21-.57,11.61-3,15-5.91a1.59,1.59,0,0,0,.33-1.51l-16.59,6.45C395.92,432.76,395.92,433.42,397.48,433Z" style="fill:#fff;stroke:#263238;stroke-linecap:round;stroke-linejoin:round;stroke-width:0.8297007805211063px"></path><path d="M424.06,357l-6.48,11.18a36.36,36.36,0,0,1,5.53,10c1.53,4.42,8,29.28,11.9,40.68a14.2,14.2,0,0,0,2,4,4.69,4.69,0,0,1,1,2.72,2.21,2.21,0,0,1-2,2.39h0c-2.34.34-15.41,1.49-16.08.94-.43-.36,6.11-3.1,8.85-4.9A7.6,7.6,0,0,0,431,421.9s-18.69-40.35-20.67-45.25a29.42,29.42,0,0,1-2.15-12.37,95.24,95.24,0,0,1,1-10.8Z" style="fill:#fff"></path><g style="clip-path:url(#freepik--clip-path-4--inject-93)"><path d="M435,418.9c-3.94-11.4-10.36-36.28-11.89-40.68a36.36,36.36,0,0,0-5.53-10L424,357l-12.41-2.94-2.7.81a84.12,84.12,0,0,0-.79,9.39,37.46,37.46,0,0,0,.15,4.15,17.59,17.59,0,0,0,3.55,1.1A23.14,23.14,0,0,0,415,370a27.57,27.57,0,0,1,2.52,6.88c1.11,4.58,15.35,43.56,15.82,44.71s2.29,1.37,0,5.53l-.68,1.2c1.45-.13,2.6-.27,3.16-.34a2.21,2.21,0,0,0,2-2.38h0a4.56,4.56,0,0,0-1-2.72A14.67,14.67,0,0,1,435,418.9Z" style="fill:#00ADEF;opacity:0.5;isolation:isolate"></path></g><path d="M424.06,357l-6.48,11.18a36.36,36.36,0,0,1,5.53,10c1.53,4.42,8,29.28,11.9,40.68a14.2,14.2,0,0,0,2,4,4.69,4.69,0,0,1,1,2.72,2.21,2.21,0,0,1-2,2.39h0c-2.34.34-15.41,1.49-16.08.94-.43-.36,6.11-3.1,8.85-4.9A7.6,7.6,0,0,0,431,421.9s-18.69-40.35-20.67-45.25a29.42,29.42,0,0,1-2.15-12.37,95.24,95.24,0,0,1,1-10.8Z" style="fill:none;stroke:#263238;stroke-linecap:round;stroke-linejoin:round;stroke-width:0.8297007805211063px"></path><path d="M438,425.61a4.69,4.69,0,0,0-1-2.72l-.15-.21A7.26,7.26,0,0,1,432.2,424V422.4c0-1.63-1.23-.5-1.23-.5A7.6,7.6,0,0,1,428.7,424c-2.75,1.8-9.29,4.54-8.85,4.9.67.55,13.74-.6,16.08-.94a2.22,2.22,0,0,0,2-2.39Z" style="fill:#263238"></path><path d="M438,426.12c-4.43.46-11.69,1-15.49,1.25-1.59.79-2.75,1.41-2.56,1.57.67.55,13.73-.6,16.08-.94A2.11,2.11,0,0,0,438,426.12Z" style="fill:#fff;stroke:#263238;stroke-linecap:round;stroke-linejoin:round;stroke-width:0.8297007805211063px"></path><path d="M401.86,313.73s-3.32,8.41-8,21.43-.35,32.71-.35,32.71,3.43,2.14,12.71-.44,17.08-5.25,17.08-5.25,6-14.52,6.35-23.78-5.85-20.61-5.85-20.61S411.19,302.22,401.86,313.73Z" style="fill:#fff"></path><g style="clip-path:url(#freepik--clip-path-5--inject-93)"><path d="M407,310l-2.86,11.45s6.64,12.61,7.34,15.6,2.06,3.21-2.29,8.72-8.95,10.77-7.11,10.08,8.91-8.2,8-5.27-6.18,6.19-8,9.4a36.33,36.33,0,0,0-3.24,8.74,32.08,32.08,0,0,0,7.47-1.26c9.29-2.57,17.08-5.26,17.08-5.26s6-14.51,6.35-23.77-5.85-20.61-5.85-20.61S415.19,307.17,407,310Z" style="fill:#00ADEF"></path></g><path d="M401.86,313.73s-3.32,8.41-8,21.43-.35,32.71-.35,32.71,3.43,2.14,12.71-.44,17.08-5.25,17.08-5.25,6-14.52,6.35-23.78-5.85-20.61-5.85-20.61S411.19,302.22,401.86,313.73Z" style="fill:none;stroke:#263238;stroke-linecap:round;stroke-linejoin:round;stroke-width:0.8297007805211063px"></path><path d="M409.2,357.22s12.24-8.49,15.71-17.91" style="fill:none;stroke:#263238;stroke-linecap:round;stroke-linejoin:round;stroke-width:0.5531338536807375px"></path><path d="M404.77,356.28s7.23-3.46,11-7.24" style="fill:none;stroke:#263238;stroke-linecap:round;stroke-linejoin:round;stroke-width:0.5531338536807375px"></path><line x1="403.51" y1="356.91" x2="400.37" y2="357.53" style="fill:none;stroke:#263238;stroke-linecap:round;stroke-linejoin:round;stroke-width:0.5531338536807375px"></line><path d="M400.45,276.13A14.23,14.23,0,0,1,411.51,275c6.64,1.74,3.62,4.2.8,4.56S400.45,276.13,400.45,276.13Z" style="fill:#fff;stroke:#263238;stroke-linecap:round;stroke-linejoin:round;stroke-width:0.8297007805211063px"></path><path d="M411.27,276.77a61,61,0,0,0-9.23-1c-3.93,0-11.19.4-14.91-1.37s-8.69-6.38-8.69-6.38l-8.38-25-3.71.26s3.55,21,3.55,24.72a13,13,0,0,0,3.14,8.44c1.77,2.36,14.09,9.32,18.6,11.67l2,1s-3.53,5.3-2.94,7.65,5.29,5.3,6.28,7.06,4.42,11.38,4.42,11.38q4.18-7.56,7.59-15.49C413.62,289.15,417.35,281.3,411.27,276.77Z" style="fill:#fff"></path><g style="clip-path:url(#freepik--clip-path-6--inject-93)"><path d="M408.91,299.75c4.71-10.6,8.44-18.45,2.36-23a62.29,62.29,0,0,0-9.23-1h-2.69c1.39.72,4.9,2.92,4.71,6.64-.22,4.59-4.34,2.75-11.23,2.52s-4.82.23-2.3,2.52l.35.29.76.4,2,1-.2.32c3.38,2,8,4.33,8.14,5.36.23,1.37-3.21,2.74-2.29,5.73.57,1.81,1.46,6.95,3,11.26A68.8,68.8,0,0,0,408.91,299.75Z" style="fill:#00ADEF;opacity:0.5;isolation:isolate"></path></g><path d="M411.27,276.77a61,61,0,0,0-9.23-1c-3.93,0-11.19.4-14.91-1.37s-8.69-6.38-8.69-6.38l-8.38-25-3.71.26s3.55,21,3.55,24.72a13,13,0,0,0,3.14,8.44c1.77,2.36,14.09,9.32,18.6,11.67l2,1s-3.53,5.3-2.94,7.65,5.29,5.3,6.28,7.06,4.42,11.38,4.42,11.38q4.18-7.56,7.59-15.49C413.62,289.15,417.35,281.3,411.27,276.77Z" style="fill:none;stroke:#263238;stroke-linecap:round;stroke-linejoin:round;stroke-width:0.8297007805211063px"></path><path d="M372.39,233.41l-1,3.19-1.32-.31-1.25-7c-.7-1.56-.93.15-.93.15l.46,4.93-2.73-7.18c-1.41-.79-1.41.69-1.41.69l1.8,6.56L362.17,229c-1.25-.7-.94.78-.94.78l3.2,6.55a33,33,0,0,0-2.57-2.21c-.59-.5-.59-.88-1.11-.51-1,.65.3,1.71.77,2.32l2.71,3.5,2.15,3.91,3.71-.25,2.49-4.22,1-5C373,232.39,372.39,233.41,372.39,233.41Z" style="fill:#fff;stroke:#263238;stroke-linecap:round;stroke-linejoin:round;stroke-width:0.8297007805211063px"></path><line x1="393.6" y1="289.15" x2="399.12" y2="293.12" style="fill:none;stroke:#263238;stroke-linecap:round;stroke-linejoin:round;stroke-width:0.5531338536807375px"></line><line x1="395.35" y1="290.92" x2="397.86" y2="295.63" style="fill:none;stroke:#263238;stroke-linecap:round;stroke-linejoin:round;stroke-width:0.5531338536807375px"></line><path d="M412.25,279.53s-6.08-5.54-8.64-12.36.18-15,3.51-18.09,14.74,1,17.7,8.85-2,15.49-3.53,17.27-6.48,4.31-6.48,4.31a52.57,52.57,0,0,1,12.36,17.87c4.52,11,3.32,17.7.59,25.12s-13.54,16.1-13.54,16.1S403,325.05,400.48,314.06,408.52,283.85,412.25,279.53Z" style="fill:#263238"></path><path d="M412.63,271.12c-9.74-5-7.23-17.59-7.23-17.59s4.43,10.67,10.06,11.3" style="fill:none;stroke:#fff;stroke-linecap:round;stroke-linejoin:round;stroke-width:0.5531338536807375px"></path><path d="M412,283.69a210,210,0,0,0-4.09,22.95c-1.57,12.89,3.8,28.45,6.3,32" style="fill:none;stroke:#fff;stroke-linecap:round;stroke-linejoin:round;stroke-width:0.5531338536807375px"></path><path d="M413.62,282.11s5.34,17.3,3.77,28.92a161.13,161.13,0,0,1-3.14,17.59" style="fill:none;stroke:#fff;stroke-linecap:round;stroke-linejoin:round;stroke-width:0.5531338536807375px"></path><path d="M415.14,283.41s11,18.22,9.42,32.37-5.65,17.91-5.65,17.91" style="fill:none;stroke:#fff;stroke-linecap:round;stroke-linejoin:round;stroke-width:0.5531338536807375px"></path></g></g></svg>